<svg width="12" height="12" viewBox="0 0 12 12" fill="none" xmlns="http://www.w3.org/2000/svg">
<g clip-path="url(#clip0_568_6128)">
<g clip-path="url(#clip1_568_6128)">
<path d="M8.76793 5.205L8.17318 8.013L10.0377 9.90075C10.5481 9.38984 10.9504 8.78132 11.2205 8.11151C11.4906 7.4417 11.623 6.72434 11.6097 6.00225C11.6088 5.60411 11.5676 5.20708 11.4867 4.81725L8.76793 5.205ZM7.31368 7.5585L7.76293 5.301L5.81968 4.0425L3.76918 5.862L4.88668 7.9575L7.31368 7.5585ZM7.44268 8.5575L4.57768 8.96775L3.20818 10.8832C4.16968 11.4335 5.27243 11.687 6.37769 11.612C7.48294 11.537 8.54133 11.1368 9.41968 10.4618L7.44268 8.55825V8.5575ZM5.97718 3.0825L8.30743 4.419L10.9587 3.402C10.4848 2.48979 9.76962 1.72515 8.89109 1.19139C8.01257 0.657641 7.00439 0.375252 5.97643 0.375H5.62318L5.97718 3.0825ZM3.03943 5.30025L5.15668 3.2565L4.52743 0.5715C3.48619 0.854376 2.54847 1.43118 1.82639 2.23293C1.10431 3.03467 0.628437 4.02744 0.455684 5.0925L3.03943 5.30025ZM3.76993 8.1705L2.83168 6.14325H0.388184C0.417163 6.98272 0.634079 7.80499 1.02296 8.54952C1.41183 9.29405 1.96277 9.94186 2.63518 10.4452L3.76993 8.1705Z" fill="black"/>
</g>
</g>
<defs>
<clipPath id="clip0_568_6128">
<rect width="12" height="12" fill="white" transform="translate(-0.000488281)"/>
</clipPath>
<clipPath id="clip1_568_6128">
<rect width="12" height="12" fill="white" transform="translate(-0.000488281)"/>
</clipPath>
</defs>
</svg>
