<svg width="13" height="13" viewBox="0 0 13 13" fill="none" xmlns="http://www.w3.org/2000/svg">
<g clip-path="url(#clip0_568_6136)">
<path fill-rule="evenodd" clip-rule="evenodd" d="M6.62128 8.32707C6.57979 8.99082 6.73465 9.65206 7.06631 10.2273C7.39798 10.8026 7.89158 11.2661 8.48482 11.5593V11.6841H3.90078L3.76018 11.0043H4.83562V9.71791H1.22607L1.5866 2.31203L11.4584 1.58105L11.5334 5.51272C11.4184 5.49096 11.2872 5.44488 11.1379 5.39228C10.8351 5.28563 10.458 5.15286 9.99576 5.14633L10.0246 3.30129L3.18407 3.9608L3.02832 8.25814L6.62128 8.32779V8.32707ZM9.9543 7.24167L11.002 7.84241L12.2014 7.38351C11.9871 6.96947 11.6634 6.62293 11.266 6.38197C10.8686 6.14101 10.4129 6.01496 9.9489 6.01769H9.78558L9.9543 7.24167ZM10.5571 9.25865L10.7597 8.23928L9.88689 7.67227L8.96323 8.49394L9.46435 9.44003L10.5571 9.25865ZM11.21 8.19937L10.9396 9.46289L11.7789 10.3129C12.0652 10.0188 12.2743 9.6576 12.3874 9.26192C12.5004 8.86624 12.5138 8.44848 12.4264 8.04628L11.21 8.19937ZM9.32952 9.8993L10.613 9.71211L11.5312 10.5621C11.1347 10.8736 10.6546 11.0584 10.1527 11.0927C9.65087 11.127 9.15029 11.0093 8.71555 10.7547L9.32952 9.8993ZM9.58837 7.31531L8.6366 8.23891L7.4768 8.14822C7.5551 7.66735 7.76929 7.21931 8.09379 6.8576C8.41829 6.4959 8.83939 6.23581 9.30681 6.10838L9.58837 7.31531ZM8.96323 9.53653L8.54647 8.62417H7.4202C7.43063 9.00268 7.52566 9.37397 7.69824 9.71046C7.87081 10.047 8.11649 10.34 8.41704 10.5679L8.96323 9.53653Z" fill="white"/>
</g>
<defs>
<clipPath id="clip0_568_6136">
<rect width="11.8972" height="11.9713" fill="white" transform="translate(0.874023 0.763672)"/>
</clipPath>
</defs>
</svg>
