<?xml version="1.0" standalone="no"?>
<!DOCTYPE svg PUBLIC "-//W3C//DTD SVG 20010904//EN"
 "http://www.w3.org/TR/2001/REC-SVG-20010904/DTD/svg10.dtd">
<svg version="1.0" xmlns="http://www.w3.org/2000/svg"
 width="512.000000pt" height="512.000000pt" viewBox="0 0 512.000000 512.000000"
 preserveAspectRatio="xMidYMid meet">

<g transform="translate(0.000000,512.000000) scale(0.100000,-0.100000)"
fill="white" stroke="none">
<path d="M3227 5110 c-582 -74 -1116 -413 -1462 -930 -75 -113 -185 -340 -228
-471 -76 -229 -106 -474 -87 -686 6 -70 13 -130 15 -133 8 -13 -37 -207 -71
-309 -47 -141 -110 -268 -196 -398 -65 -97 -129 -165 -629 -668 -494 -496
-558 -565 -564 -599 -15 -77 -2 -95 252 -348 260 -258 275 -268 358 -247 35 8
109 79 585 558 356 358 573 569 626 608 157 115 339 206 515 257 143 41 198
48 291 36 291 -36 611 14 910 143 611 262 1081 831 1218 1472 31 145 39 430
16 580 -19 121 -77 308 -126 406 -187 373 -519 623 -940 709 -118 24 -368 35
-483 20z m412 -310 l54 -12 -179 -179 -179 -179 -162 162 c-90 89 -159 165
-155 169 9 9 138 37 222 49 85 11 330 5 399 -10z m417 -172 c66 -44 202 -180
248 -248 l36 -55 -225 -225 -225 -225 -170 170 -170 170 222 222 c123 123 225
223 229 223 3 0 28 -15 55 -32z m-1074 -550 l-142 -143 -238 238 -237 237 30
25 c49 40 206 147 260 177 l50 27 210 -209 210 -210 -143 -142z m-584 -121
l232 -232 -143 -143 -142 -142 -210 210 -210 210 29 53 c59 106 183 277 201
277 5 0 115 -105 243 -233z m2082 -34 c19 -131 8 -383 -22 -501 l-23 -92 -165
165 -165 165 175 175 c96 96 178 175 181 175 4 0 13 -39 19 -87z m-967 -91
l167 -167 -143 -143 -142 -142 -170 170 -170 170 140 140 c77 77 142 140 145
140 3 0 81 -75 173 -168z m-1538 -442 l160 -160 -180 -180 -180 -180 -13 62
c-20 98 -19 346 2 453 22 117 35 165 44 165 4 0 79 -72 167 -160z m1067 -362
l-142 -143 -170 170 -170 170 142 142 143 143 170 -170 170 -170 -143 -142z
m1268 -2 c0 -15 -97 -169 -161 -254 l-62 -84 -238 238 -239 239 142 142 143
143 207 -207 c115 -114 208 -212 208 -217z m-1787 -184 l167 -167 -223 -223
c-122 -122 -226 -222 -231 -222 -38 0 -240 187 -305 284 l-34 48 224 224 c123
123 226 224 229 224 3 0 81 -75 173 -168z m1117 -127 c200 -201 233 -238 220
-248 -142 -110 -211 -157 -288 -196 l-39 -20 -209 210 -209 209 140 140 c77
77 142 140 145 140 3 0 111 -106 240 -235z m-418 -586 c-19 -18 -218 -51 -337
-56 -117 -5 -277 7 -321 24 -12 4 31 53 162 184 l179 179 162 -162 c90 -89
159 -166 155 -169z m-1523 195 c59 -88 188 -218 289 -292 l83 -61 -93 -44
c-107 -50 -223 -119 -321 -190 l-69 -50 -109 109 -109 109 43 61 c69 94 153
240 195 336 20 48 39 88 42 87 3 0 25 -29 49 -65z"/>
<path d="M4135 1703 c-181 -25 -392 -141 -515 -282 -134 -155 -215 -364 -208
-536 l3 -73 65 40 c278 172 637 254 950 219 242 -27 426 -89 649 -219 l44 -26
-6 95 c-25 376 -318 702 -695 775 -68 13 -217 17 -287 7z"/>
<path d="M4122 769 c-204 -26 -429 -119 -581 -239 l-51 -41 16 -32 c61 -118
185 -251 302 -324 195 -122 444 -162 662 -107 229 58 446 228 549 431 11 23
21 46 21 51 0 14 -128 97 -218 142 -210 105 -469 149 -700 119z"/>
</g>
</svg>
