<svg width="42" height="35" viewBox="0 0 42 35" fill="none" xmlns="http://www.w3.org/2000/svg">
<path d="M37.6828 8.72262C37.7095 9.10542 37.7095 9.4883 37.7095 9.87109C37.7095 21.5468 29.0484 35 13.2183 35C8.34138 35 3.81094 33.5507 0 31.0352C0.692921 31.1172 1.3591 31.1445 2.07868 31.1445C6.10274 31.1445 9.80712 29.75 12.7653 27.3711C8.98098 27.2891 5.80964 24.7461 4.71698 21.2461C5.25002 21.3281 5.78298 21.3828 6.34268 21.3828C7.1155 21.3828 7.8884 21.2734 8.6079 21.082C4.66374 20.2617 1.70552 16.707 1.70552 12.414V12.3047C2.85142 12.961 4.18402 13.3711 5.59636 13.4257C3.27782 11.8398 1.75884 9.13277 1.75884 6.07025C1.75884 4.42966 2.18516 2.92575 2.9314 1.61324C7.16874 6.97261 13.5381 10.4726 20.6802 10.8554C20.5469 10.1992 20.467 9.51565 20.467 8.83204C20.467 3.9648 24.3046 0 29.0749 0C31.5533 0 33.7918 1.0664 35.3642 2.78906C37.3096 2.40627 39.1751 1.66795 40.8274 0.656255C40.1878 2.70708 38.8287 4.42974 37.0432 5.52341C38.7754 5.3321 40.4544 4.8398 42 4.15628C40.8276 5.90621 39.3618 7.46474 37.6828 8.72262Z" fill="url(#paint0_linear_202_1059)"/>
<defs>
<linearGradient id="paint0_linear_202_1059" x1="2.19199e-07" y1="14.7668" x2="41.9998" y2="14.8952" gradientUnits="userSpaceOnUse">
<stop stop-color="#E7A024"/>
<stop offset="1" stop-color="#F0CC2E"/>
</linearGradient>
</defs>
</svg>
